<svg version="1.1" id="Layer_1" xmlns="http://www.w3.org/2000/svg" x="0" y="0" viewBox="0 0 24 24" xml:space="preserve" enable-background="new 0 0 24 24" width="24" height="24"><g class="nc-icon-wrapper"><path d="M2.25 6.003A2.252 2.252 0 0 1 0 3.753v-1.5A2.252 2.252 0 0 1 2.25.003h19.5A2.252 2.252 0 0 1 24 2.253v1.5a2.252 2.252 0 0 1-2.25 2.25H2.25zm0-4.5a.75.75 0 0 0-.75.75v1.5c0 .414.336.75.75.75h19.5a.75.75 0 0 0 .75-.75v-1.5a.75.75 0 0 0-.75-.75H2.25z"/><path d="M2.25 15.003A2.252 2.252 0 0 1 0 12.753v-1.5a2.252 2.252 0 0 1 2.25-2.25h19.5a2.252 2.252 0 0 1 2.25 2.25v1.5a2.252 2.252 0 0 1-2.25 2.25H2.25zm0-4.5a.75.75 0 0 0-.75.75v1.5c0 .414.336.75.75.75h19.5a.75.75 0 0 0 .75-.75v-1.5a.75.75 0 0 0-.75-.75H2.25z"/><path d="M2.25 24.003A2.252 2.252 0 0 1 0 21.753v-1.5a2.252 2.252 0 0 1 2.25-2.25h19.5a2.252 2.252 0 0 1 2.25 2.25v1.5a2.252 2.252 0 0 1-2.25 2.25H2.25zm0-4.5a.75.75 0 0 0-.75.75v1.5c0 .414.336.75.75.75h19.5a.75.75 0 0 0 .75-.75v-1.5a.75.75 0 0 0-.75-.75H2.25z"/></g></svg>